<?xml version="1.0" standalone="no"?>
<!DOCTYPE svg PUBLIC "-//W3C//DTD SVG 20010904//EN"
 "http://www.w3.org/TR/2001/REC-SVG-20010904/DTD/svg10.dtd">
<svg version="1.0" xmlns="http://www.w3.org/2000/svg"
 width="1424.000000pt" height="1424.000000pt" viewBox="0 0 1424.000000 1424.000000"
 preserveAspectRatio="xMidYMid meet">
<metadata>
Created by potrace 1.14, written by Peter Selinger 2001-2017
</metadata>
<g transform="translate(0.000000,1424.000000) scale(0.100000,-0.100000)"
fill="#000000" stroke="none">
<path d="M10660 11363 c0 -4 -46 -8 -103 -9 -96 0 -256 -11 -301 -20 -18 -3
-62 -7 -206 -19 -19 -2 -35 -4 -35 -5 0 0 -18 -3 -40 -5 -93 -9 -144 -17 -210
-31 -101 -21 -107 -22 -135 -28 -14 -3 -53 -15 -85 -26 -33 -11 -60 -20 -60
-20 0 1 -13 -3 -28 -9 -16 -6 -34 -11 -42 -11 -8 0 -16 -4 -19 -9 -3 -5 -16
-11 -28 -14 -13 -3 -59 -19 -103 -37 -44 -17 -87 -33 -95 -35 -14 -4 -186 -68
-220 -82 -8 -3 -17 -7 -20 -8 -16 -6 -49 -19 -77 -31 -17 -8 -34 -14 -38 -14
-13 0 -262 -128 -317 -163 -31 -21 -62 -37 -68 -37 -5 0 -10 -4 -10 -10 0 -5
-4 -10 -9 -10 -4 0 -37 -19 -72 -42 -35 -24 -111 -72 -168 -108 -56 -36 -108
-69 -115 -75 -6 -5 -47 -36 -90 -69 -126 -94 -225 -183 -505 -453 -47 -46 -89
-83 -93 -83 -5 0 -8 -3 -8 -7 0 -5 -22 -31 -48 -59 -50 -54 -80 -89 -167 -199
-31 -38 -63 -78 -71 -88 -8 -9 -14 -19 -14 -21 0 -5 -228 -365 -296 -468 -24
-36 -44 -69 -44 -72 0 -4 -5 -12 -10 -19 -15 -18 -95 -140 -103 -157 -4 -8
-43 -69 -87 -135 -45 -66 -83 -128 -87 -137 -3 -10 -10 -18 -15 -18 -5 0 -7
-4 -4 -9 4 -5 3 -11 -2 -13 -4 -1 -38 -50 -74 -108 -37 -58 -71 -109 -75 -115
-5 -5 -42 -64 -83 -130 -41 -66 -80 -126 -87 -133 -7 -7 -13 -20 -13 -28 0 -8
-4 -14 -8 -14 -5 0 -15 -12 -23 -27 -8 -16 -17 -30 -20 -33 -3 -3 -23 -34 -45
-70 -21 -36 -43 -69 -47 -75 -4 -5 -26 -39 -49 -75 -22 -36 -54 -84 -69 -107
-16 -23 -29 -44 -29 -48 0 -3 -10 -21 -23 -38 -12 -18 -27 -39 -32 -48 -6 -9
-22 -35 -37 -57 -16 -23 -28 -46 -28 -52 0 -5 -5 -10 -10 -10 -6 0 -14 -10
-19 -22 -5 -13 -34 -61 -65 -107 -31 -47 -56 -88 -56 -93 0 -4 -4 -8 -10 -8
-5 0 -10 -4 -10 -9 0 -12 -162 -265 -172 -269 -5 -2 -8 -10 -8 -18 0 -8 -5
-14 -12 -14 -6 0 -8 -3 -5 -6 4 -4 -7 -24 -23 -44 -17 -21 -30 -41 -30 -44 0
-3 -27 -47 -60 -97 -33 -50 -60 -92 -60 -93 0 -2 -33 -53 -72 -114 -118 -181
-223 -344 -227 -356 -2 -6 -7 -13 -10 -16 -4 -3 -34 -48 -66 -100 -33 -52 -63
-99 -68 -105 -4 -5 -35 -54 -69 -107 -33 -54 -66 -98 -74 -98 -28 0 -98 92
-309 405 -81 121 -156 229 -166 241 -11 11 -19 25 -19 31 0 5 -9 18 -20 28
-11 10 -20 24 -20 32 0 7 -4 13 -10 13 -5 0 -10 7 -10 15 0 8 -4 15 -10 15 -5
0 -10 6 -10 14 0 8 -3 16 -8 18 -11 4 -252 355 -252 367 0 5 -4 11 -8 13 -4 1
-39 48 -77 103 -37 55 -83 121 -101 146 -19 26 -34 51 -34 57 0 6 -4 12 -8 14
-5 2 -46 59 -93 128 -46 69 -86 127 -89 130 -3 3 -35 48 -70 100 -35 52 -67
97 -72 98 -4 2 -8 10 -8 18 0 8 -4 14 -9 14 -5 0 -11 8 -15 18 -4 14 -55 91
-84 127 -8 11 -170 247 -208 305 -13 19 -27 40 -32 45 -4 6 -18 26 -32 45 -13
19 -29 38 -35 42 -5 4 -6 8 -2 8 7 0 -33 59 -60 88 -6 6 -15 21 -18 32 -3 11
-11 20 -16 20 -5 0 -9 6 -9 13 0 7 -10 24 -22 38 -13 14 -27 33 -33 42 -5 9
-41 62 -80 118 -38 55 -75 109 -81 120 -6 10 -18 27 -27 37 -10 10 -17 23 -17
29 0 6 -4 13 -8 15 -7 3 -200 280 -227 326 -5 9 -13 19 -16 22 -3 3 -34 48
-69 100 -35 52 -67 97 -70 100 -3 3 -9 13 -15 22 -5 10 -33 50 -61 90 -132
192 -200 292 -212 314 -7 13 -17 24 -23 24 -5 0 -9 6 -9 13 0 8 -8 23 -17 35
-10 11 -37 47 -61 80 -80 111 -203 213 -333 275 -52 25 -149 60 -174 62 -5 1
-23 4 -40 8 -16 4 -47 9 -67 11 -21 2 -42 7 -48 11 -5 3 -10 2 -10 -4 0 -6
-11 -6 -29 -1 -16 4 -31 6 -34 4 -2 -2 -34 -6 -72 -9 -38 -3 -76 -7 -84 -10
-9 -2 -27 -6 -41 -9 -46 -8 -159 -54 -222 -89 -120 -67 -175 -118 -297 -272
-13 -17 -82 -160 -84 -176 -2 -8 -5 -18 -9 -24 -3 -5 -9 -23 -12 -40 -3 -16
-9 -41 -12 -55 -11 -46 -13 -247 -2 -291 5 -24 11 -53 13 -64 5 -31 40 -126
65 -175 19 -37 170 -267 471 -715 18 -27 37 -51 41 -53 4 -2 8 -7 8 -11 0 -5
28 -50 62 -101 35 -50 68 -100 73 -110 22 -37 70 -105 78 -108 4 -2 5 -8 1
-13 -3 -5 0 -9 6 -9 6 0 14 -8 18 -18 7 -16 161 -251 172 -262 3 -3 25 -36 50
-75 25 -38 47 -72 50 -75 7 -7 184 -272 189 -285 2 -5 12 -18 23 -29 10 -11
18 -26 18 -33 0 -7 4 -13 8 -13 5 0 17 -16 28 -35 10 -19 22 -35 26 -35 5 0 8
-5 8 -11 0 -6 11 -25 25 -43 14 -18 25 -38 25 -43 0 -6 7 -14 16 -17 8 -3 13
-10 10 -15 -4 -5 -2 -11 2 -13 5 -1 142 -203 306 -448 163 -245 304 -453 312
-463 7 -9 14 -20 14 -23 0 -8 44 -69 53 -72 4 -2 7 -7 7 -12 0 -4 45 -74 100
-155 55 -81 100 -149 100 -152 0 -3 8 -15 18 -28 9 -12 23 -31 30 -41 6 -11
39 -59 72 -107 33 -48 60 -92 60 -97 0 -4 3 -10 8 -12 4 -1 63 -86 131 -188
68 -102 128 -188 133 -191 5 -3 10 -10 10 -15 0 -5 91 -144 202 -309 110 -165
203 -304 205 -310 2 -5 7 -12 10 -15 8 -6 104 -150 110 -165 2 -5 13 -18 23
-30 11 -11 26 -35 35 -52 8 -18 19 -33 24 -33 5 0 9 -6 9 -13 0 -8 9 -22 20
-32 11 -10 20 -21 20 -25 0 -5 24 -43 53 -86 142 -210 177 -264 176 -270 0 -4
4 -10 9 -13 5 -3 35 -44 66 -91 70 -104 180 -211 272 -266 65 -38 214 -100
214 -88 0 2 8 0 18 -5 20 -11 120 -22 190 -22 72 0 141 10 202 27 30 9 62 17
70 19 23 5 151 73 195 105 72 51 130 114 180 195 27 44 53 82 57 83 5 2 8 8 8
13 0 5 36 65 80 135 44 69 80 130 80 135 0 5 5 9 10 9 6 0 10 7 10 15 0 8 5
15 10 15 6 0 10 5 10 12 0 6 10 25 23 42 13 17 27 38 30 46 4 8 16 29 27 45
11 17 23 37 27 45 4 8 11 20 15 25 5 6 23 33 40 60 17 28 45 73 63 100 17 28
69 111 115 185 46 74 88 138 93 141 5 3 9 10 10 15 0 5 19 38 42 74 22 36 66
105 96 153 29 48 65 105 79 127 14 22 54 86 89 142 36 57 80 127 98 155 18 29
33 56 32 59 0 4 3 10 8 13 10 7 93 137 93 146 0 3 9 15 19 27 11 11 26 32 33
47 7 15 35 61 62 103 41 64 51 74 63 63 7 -8 13 -18 13 -23 0 -9 27 -68 132
-292 36 -76 153 -276 244 -417 19 -29 32 -53 28 -53 -3 0 1 -6 8 -13 7 -7 42
-61 77 -120 95 -157 183 -271 321 -418 36 -38 92 -99 125 -135 91 -102 353
-363 415 -415 146 -123 300 -238 413 -305 34 -21 64 -42 65 -46 2 -4 7 -8 12
-8 4 0 64 -32 132 -71 250 -144 457 -249 490 -249 8 0 18 -4 23 -8 24 -21 161
-62 390 -118 17 -4 35 -8 40 -10 6 -1 21 -4 35 -7 14 -3 32 -8 40 -11 8 -3 29
-8 45 -11 17 -3 68 -11 115 -20 47 -8 112 -17 145 -19 33 -3 62 -6 65 -7 12
-4 1040 -3 1040 1 0 3 24 6 53 7 28 1 70 5 92 8 22 3 49 8 60 9 11 2 36 7 55
11 19 5 44 9 55 9 11 1 26 5 33 9 6 5 12 6 12 3 0 -2 15 0 33 5 17 6 41 12 52
14 20 5 76 18 85 20 47 13 272 67 290 70 8 1 35 8 60 15 25 7 52 14 60 15 8 1
22 5 30 7 8 3 53 18 100 33 47 15 99 33 117 41 17 8 36 14 42 14 6 0 19 4 29
9 59 31 102 50 102 43 0 -4 4 -2 8 3 4 6 43 28 87 49 44 22 117 62 162 88 45
26 84 48 88 48 3 0 11 5 18 11 7 6 81 52 166 102 196 117 180 107 226 142 66
49 340 271 392 317 60 54 296 290 343 343 74 84 182 217 232 285 91 125 108
157 112 212 6 83 -33 157 -107 206 -38 24 -50 27 -132 26 -139 -1 -285 -8
-285 -14 0 -3 -33 -5 -73 -6 -64 -1 -182 -8 -332 -19 -27 -2 -97 -6 -155 -10
-96 -5 -185 -13 -214 -18 -11 -2 -96 -55 -106 -66 -4 -5 -147 -122 -175 -143
-27 -21 -153 -122 -172 -139 -48 -40 -170 -128 -223 -159 -30 -18 -66 -40 -80
-49 -14 -8 -27 -16 -30 -17 -3 0 -39 -17 -82 -37 -42 -21 -96 -44 -120 -53
-152 -55 -294 -106 -303 -108 -5 -2 -22 -8 -37 -14 -29 -12 -140 -45 -148 -44
-3 0 -12 -4 -21 -9 -15 -8 -59 -18 -105 -23 -11 -2 -25 -5 -30 -8 -5 -3 -34
-9 -64 -12 -30 -4 -66 -8 -80 -10 -37 -7 -120 -17 -160 -22 -19 -1 -60 -6 -90
-9 -159 -19 -199 -21 -293 -19 -56 2 -131 5 -167 9 -36 3 -92 8 -125 10 -33 3
-73 7 -90 10 -16 3 -52 7 -80 10 -78 7 -90 9 -185 31 -14 3 -43 9 -65 14 -50
11 -237 75 -290 100 -22 10 -89 40 -150 65 -60 26 -125 53 -142 61 -18 8 -48
20 -65 28 -161 69 -294 146 -419 242 -75 57 -260 240 -404 398 -44 49 -89 98
-100 110 -51 55 -215 282 -215 299 0 3 -25 48 -55 101 -30 53 -51 96 -47 96 4
0 2 4 -4 8 -19 12 -134 231 -215 407 -19 42 -69 179 -74 205 -2 8 -4 15 -5 15
-1 0 -3 7 -5 15 -2 8 -16 58 -30 111 -25 96 -35 146 -40 204 -2 17 -4 30 -5
30 -3 0 -14 98 -25 215 -23 237 -23 521 -1 650 2 14 7 49 10 79 4 30 9 64 11
75 3 12 7 32 9 46 8 41 15 72 31 140 9 36 17 70 17 75 2 10 96 283 120 348 8
21 20 43 26 49 7 7 12 17 12 24 0 14 96 200 110 214 8 8 28 41 46 78 9 17 20
32 24 32 5 0 11 8 15 19 3 10 16 30 28 44 12 15 36 45 52 67 17 23 37 49 45
59 9 9 29 35 45 56 17 22 35 45 41 51 5 7 35 44 65 83 29 39 57 71 61 71 5 0
8 4 8 9 0 12 48 67 153 175 48 50 87 94 87 98 0 5 3 8 8 8 7 0 43 29 92 74 14
12 63 51 110 85 118 86 129 93 150 105 11 6 69 41 130 79 62 37 115 67 120 67
5 0 13 6 17 13 4 6 28 23 53 36 87 46 203 103 214 105 6 1 26 10 44 19 17 10
32 15 32 11 0 -4 7 -1 15 6 8 7 15 10 15 6 0 -4 13 0 30 9 16 8 32 15 35 15 3
0 6 0 8 1 1 0 9 2 17 4 8 2 44 11 80 20 36 9 79 19 95 21 17 3 55 9 85 14 30
5 71 12 90 15 19 3 46 7 60 10 14 3 50 7 80 11 30 3 57 7 60 9 3 1 37 6 77 10
40 4 85 8 100 11 34 4 312 5 368 0 37 -3 127 -13 185 -21 14 -1 41 -6 60 -9
19 -4 60 -11 90 -16 30 -6 66 -12 80 -15 14 -3 39 -7 55 -10 17 -3 44 -8 60
-12 17 -3 39 -7 50 -9 17 -2 165 -38 260 -64 17 -4 50 -15 75 -25 25 -9 54
-17 65 -16 10 0 24 -4 30 -8 12 -10 120 -46 120 -40 0 2 11 -4 25 -14 13 -9
32 -17 41 -17 10 0 19 -3 21 -7 2 -5 21 -17 43 -28 50 -25 143 -87 183 -123
17 -15 49 -43 73 -61 23 -19 47 -40 53 -45 6 -6 38 -34 71 -62 100 -85 106
-87 315 -85 63 0 180 1 260 1 80 0 150 0 155 1 6 0 58 -1 116 -2 58 -1 110 0
115 3 5 3 17 3 26 -1 9 -3 95 -3 190 0 190 6 203 9 263 73 74 79 76 197 5 289
-67 86 -273 297 -363 372 -27 22 -54 45 -60 50 -7 6 -39 33 -72 60 -33 28 -62
52 -65 55 -6 6 -117 100 -149 126 -13 10 -28 24 -35 29 -6 6 -29 23 -51 40
-43 32 -48 36 -84 65 -13 11 -32 22 -42 25 -11 4 -19 10 -19 14 0 5 -13 14
-30 21 -16 7 -30 16 -30 21 0 5 -5 9 -11 9 -6 0 -23 8 -37 19 -30 21 -215 117
-277 143 -22 9 -101 42 -175 72 -74 30 -153 62 -175 72 -22 10 -42 18 -45 19
-3 1 -18 7 -35 14 -265 108 -352 140 -415 156 -8 2 -46 13 -85 25 -78 22 -206
51 -247 55 -14 2 -30 5 -35 8 -4 3 -36 8 -70 12 -34 3 -72 8 -84 10 -13 3 -53
7 -89 11 -36 3 -76 7 -89 9 -33 6 -184 17 -246 19 -28 1 -56 5 -63 9 -6 5 -12
5 -12 0z"/>
<path d="M4488 9694 c-2 -1 -32 -4 -68 -8 -184 -16 -379 -113 -518 -257 -70
-71 -68 -69 -118 -149 -40 -63 -87 -170 -98 -220 -3 -14 -12 -52 -19 -85 -22
-99 -13 -298 18 -385 8 -22 14 -41 14 -43 -2 -15 64 -157 73 -157 5 0 8 -6 8
-14 0 -8 11 -28 25 -44 14 -17 25 -33 25 -36 0 -15 120 -132 182 -176 101 -74
245 -137 358 -156 25 -4 97 -8 160 -8 123 0 197 13 295 50 11 4 22 8 25 8 3 1
11 5 18 9 6 5 12 5 12 0 0 -4 4 -3 8 2 4 6 18 16 32 23 40 20 98 56 120 75 11
9 23 17 26 17 3 0 35 30 72 68 133 133 216 297 248 488 10 57 5 299 -6 299 -1
0 -4 11 -6 25 -8 43 -47 143 -82 210 -84 161 -226 299 -389 376 -32 16 -60 29
-63 30 -3 0 -18 6 -33 12 -16 7 -36 12 -46 12 -10 0 -21 3 -25 7 -4 4 -17 8
-29 10 -12 1 -43 5 -69 8 -58 7 -147 12 -150 9z"/>
<path d="M10520 7484 c-41 -8 -79 -15 -85 -17 -5 -2 -23 -7 -40 -11 -16 -4
-46 -16 -66 -27 -20 -10 -39 -16 -43 -12 -3 3 -6 1 -6 -5 0 -7 -6 -12 -13 -12
-31 0 -247 -166 -247 -190 0 -5 -4 -10 -8 -10 -14 0 -92 -111 -127 -180 -29
-59 -65 -158 -81 -229 -7 -29 -8 -268 -2 -316 2 -17 8 -36 12 -43 4 -7 5 -12
2 -12 -3 0 6 -30 18 -67 27 -79 95 -213 107 -213 5 0 9 -6 9 -14 0 -24 163
-182 235 -228 75 -48 157 -88 178 -88 7 0 17 -4 22 -9 29 -28 365 -64 365 -39
0 5 5 6 10 3 8 -5 116 14 170 30 74 22 223 105 280 155 14 12 36 32 50 44 38
32 120 132 120 145 0 6 4 11 8 11 15 0 90 164 112 244 34 124 40 279 15 401
-45 225 -180 426 -371 554 -74 50 -197 106 -254 116 -18 3 -37 8 -41 10 -31
20 -238 25 -329 9z"/>
</g>
</svg>
