<svg width="21" height="20" viewBox="0 0 21 20" fill="none" xmlns="http://www.w3.org/2000/svg">
<path fill-rule="evenodd" clip-rule="evenodd" d="M5.17643 0.0489833C4.94873 0.109612 4.68623 0.385666 4.62559 0.628263C4.59069 0.7678 4.57764 1.90026 4.57764 4.78843V8.75683L3.56153 8.77635C2.50062 8.79674 2.38013 8.81411 1.90906 9.01461C1.40026 9.23115 0.853288 9.67069 0.564055 10.0955C0.380252 10.3654 0.203633 10.7381 0.096233 11.0826L0 11.3913V14.2449V17.0985L0.0950014 17.4294C0.256471 17.9915 0.482479 18.37 0.923739 18.8172C1.25776 19.1557 1.36976 19.2401 1.70378 19.4054C2.40956 19.7548 1.72747 19.7288 10.1166 19.7256C14.355 19.7241 17.6751 19.7067 17.8048 19.6854C18.6231 19.5513 19.2779 19.2233 19.8638 18.6542C20.2325 18.2961 20.5851 17.7606 20.7445 17.3168C21.0145 16.5653 20.9997 17.0778 20.9997 8.49046C20.9997 -0.11272 21.0202 0.544434 20.7421 0.25498C20.4794 -0.0184691 20.9719 -0.00283635 12.7709 0.00187828C7.79221 0.00477324 5.28407 0.0202819 5.17643 0.0489833ZM19.3164 9.01146V16.3297L19.2208 16.595C18.9711 17.2878 18.5089 17.743 17.8384 17.956C17.6285 18.0227 17.2003 18.0279 11.7681 18.0284C6.21775 18.029 5.92519 18.0254 5.95372 17.9567C6.07167 17.6727 6.17981 17.2867 6.21705 17.0171C6.24681 16.8016 6.2609 14.2902 6.2609 9.19645V1.69323H12.7886H19.3164V9.01146ZM8.99159 5.29679C8.61528 5.3855 8.38631 5.66064 8.36398 6.05092C8.34542 6.37441 8.4619 6.62131 8.71746 6.80022L8.89548 6.92482H11.7828H14.6701L14.845 6.80076C15.4455 6.37466 15.2684 5.44943 14.5568 5.29571C14.2925 5.2386 9.23422 5.23959 8.99159 5.29679ZM9.01573 9.34699C8.64587 9.42143 8.39358 9.69947 8.36341 10.0659C8.33138 10.4553 8.50316 10.7734 8.82515 10.9207C8.98223 10.9926 9.19259 10.9967 12.7737 10.9975L16.5564 10.9984L16.7751 10.8833C16.9523 10.7901 17.0158 10.7261 17.1083 10.5477C17.339 10.1028 17.1978 9.65505 16.7505 9.41254L16.5862 9.3235L12.8913 9.31705C10.8591 9.31353 9.11504 9.32697 9.01573 9.34699ZM4.56832 13.7185L4.55711 16.9763L4.42196 17.2528C4.26903 17.5656 4.04832 17.7823 3.72993 17.9319C3.56132 18.0111 3.44091 18.0331 3.13463 18.0405C2.794 18.0487 2.72519 18.0375 2.52489 17.9412C2.18996 17.7801 1.97261 17.5683 1.81841 17.2527L1.68326 16.9761V14.2458V11.5154L1.78339 11.3104C1.95989 10.9491 2.27851 10.6569 2.64353 10.5216C2.74888 10.4825 3.05031 10.4658 3.68564 10.4637L4.57957 10.4608L4.56832 13.7185ZM9.01573 13.1524C8.64406 13.2259 8.39362 13.5037 8.36296 13.8764C8.32876 14.2917 8.55743 14.6563 8.91851 14.7621C9.02583 14.7936 9.92978 14.8036 11.8716 14.795L14.6702 14.7826L14.8481 14.6579C15.1048 14.4783 15.2202 14.2324 15.2014 13.9053C15.1893 13.6938 15.1648 13.6211 15.063 13.4944C14.8829 13.2703 14.7659 13.1962 14.5176 13.1493C14.2459 13.0981 9.27659 13.1008 9.01573 13.1524Z" fill="#F5FAFF"/>
</svg>
