<svg width="25" height="25" viewBox="0 0 25 25" fill="none" xmlns="http://www.w3.org/2000/svg">
<path fill-rule="evenodd" clip-rule="evenodd" d="M9.44793 0.0897127C9.21561 0.19642 9.11151 0.305326 9.01034 0.547457C8.94345 0.707592 8.93525 2.01607 8.93525 12.5C8.93525 22.9839 8.94345 24.2924 9.01034 24.4525C9.11151 24.6947 9.21561 24.8036 9.44793 24.9103C9.63039 24.9941 9.83126 25 12.4996 25C15.1679 25 15.3688 24.9941 15.5512 24.9103C15.7836 24.8036 15.8877 24.6947 15.9888 24.4525C16.0557 24.2924 16.0639 22.9839 16.0639 12.5C16.0639 2.01607 16.0557 0.707592 15.9888 0.547457C15.8877 0.305326 15.7836 0.19642 15.5512 0.0897127C15.3688 0.00590922 15.1679 0 12.4996 0C9.83126 0 9.63039 0.00590922 9.44793 0.0897127ZM14.3062 12.5V23.1952H12.4996H10.693V12.5V1.8048H12.4996H14.3062V12.5ZM18.507 7.18454C18.2523 7.25882 18.0854 7.39854 17.9724 7.63212L17.8705 7.84251V16.0825C17.8705 24.1871 17.8721 24.3254 17.9668 24.5111C18.0823 24.7375 18.2605 24.8863 18.4996 24.9559C18.6169 24.99 19.6366 25.0023 21.5361 24.9925L24.3961 24.9777L24.5941 24.8467C24.7136 24.7675 24.8333 24.6305 24.896 24.5007L25 24.2859L24.9874 16.0045L24.9748 7.72306L24.8231 7.53543C24.7397 7.43219 24.5969 7.30379 24.5057 7.25007C24.3456 7.15572 24.244 7.15211 21.5081 7.14381C19.7204 7.13843 18.6138 7.15343 18.507 7.18454ZM23.1926 16.0651V23.1952H21.4104H19.6283V16.0651V8.93493H21.4104H23.1926V16.0651ZM0.608818 9.86586C0.423619 9.91972 0.153022 10.1792 0.0660134 10.3863C0.0116207 10.5158 0 11.7508 0 17.4155V24.2876L0.103561 24.5016C0.165961 24.6305 0.285879 24.7677 0.405113 24.8467L0.603105 24.9777L3.46307 24.9925C5.36257 25.0023 6.38231 24.99 6.49954 24.9559C6.73864 24.8863 6.91691 24.7375 7.03238 24.5111C7.12686 24.3259 7.12867 24.1934 7.12867 17.4081C7.12867 10.7197 7.12564 10.4879 7.03619 10.3126C6.92199 10.0888 6.8111 9.98604 6.57918 9.8891C6.42401 9.82425 6.01342 9.81458 3.5781 9.81839C2.0264 9.82083 0.690211 9.84217 0.608818 9.86586ZM5.37091 17.4081V23.1952H3.58875H1.80658V17.4081V11.6209H3.58875H5.37091V17.4081Z" fill="#fff"/>
</svg>
