<?xml version="1.0" encoding="UTF-8" standalone="no"?> <!-- Created with Vectornator for iOS (http://vectornator.io/) --><!DOCTYPE svg PUBLIC "-//W3C//DTD SVG 1.1//EN" "http://www.w3.org/Graphics/SVG/1.1/DTD/svg11.dtd">
<svg height="100%" style="fill-rule:nonzero;clip-rule:evenodd;stroke-linecap:round;stroke-linejoin:round;" xmlns:xlink="http://www.w3.org/1999/xlink" xmlns="http://www.w3.org/2000/svg" xml:space="preserve" width="100%" xmlns:vectornator="http://vectornator.io" version="1.1" viewBox="0 0 585 205">
<defs>
<linearGradient y1="243.348" id="LinearGradient" x1="662.1" y2="243.348" x2="734.288" gradientUnits="userSpaceOnUse" gradientTransform="matrix(1 0 0 1 -362.963 -198.475)">
<stop stop-color="#3642ad" offset="0"/>
<stop stop-color="#0071bc" offset="0.47"/>
</linearGradient>
<linearGradient y1="247.884" id="LinearGradient_2" x1="693.995" y2="247.884" x2="709.962" gradientUnits="userSpaceOnUse" gradientTransform="matrix(1 0 0 1 -362.963 -198.475)">
<stop stop-color="#3642ad" offset="0"/>
<stop stop-color="#0071bc" offset="0.51"/>
</linearGradient>
</defs>
<g id="layer0" vectornator:layerName="layer0">
<path d="M268.36+200.68L269.32+200.68L269.32+223.72L268.36+223.72L268.36+200.68Z" opacity="1" fill="none"/>
<g opacity="1">
<path d="M298.426+196.33L249.666+195.33L249.666+122.42L264.466+122.42L264.466+182.25L298.426+182.93L298.426+196.33L298.426+196.33Z" fill-rule="evenodd" fill="#3642ad" opacity="1"/>
<path d="M363.206+196.33L363.206+122.61L379.085+122.41L378.846+196.33L363.206+196.33L363.206+196.33Z" fill-rule="evenodd" fill="#3642ad" opacity="1"/>
<path d="M465.605+195.32L465.605+122.41L512.786+122.41L512.786+135.28L480.396+135.28L480.396+152.33L506.346+152.33L506.346+164.98L480.396+164.98L480.396+182.46L512.776+182.46L512.776+195.33L465.605+195.33L465.605+195.32Z" fill-rule="evenodd" fill="#3642ad" opacity="1"/>
<path d="M547.355+170.88L533.096+170.88L533.096+195.33L518.295+195.33L518.295+122.42L546.605+122.42C563.766+122.42+572.336+130.43+572.336+146.44C572.336+155.95+568.766+162.95+561.615+167.46L579.896+196.33L564.256+196.33L547.355+170.88L547.355+170.88ZM533.096+158.22L546.826+158.22C550.326+158.22+552.936+157.15+554.656+155C556.365+152.86+557.225+150.03+557.225+146.53C557.225+143.03+556.316+140.24+554.485+138.17C552.665+136.1+550.036+135.06+546.605+135.06L533.096+135.06L533.096+158.22L533.096+158.22Z" fill-rule="evenodd" fill="#3642ad" opacity="1"/>
<path d="M125.226+119.84C133.186+119.84+140.016+121.45+145.726+124.68C151.436+127.91+155.756+132.5+158.686+138.45C161.616+144.4+163.086+151.39+163.086+159.42C163.086+165.35+162.286+170.75+160.676+175.6C159.066+180.45+156.666+184.66+153.446+188.22C150.226+191.78+146.286+194.5+141.616+196.39C136.936+198.27+131.576+199.22+125.546+199.22C119.546+199.22+114.166+198.25+109.416+196.31C104.666+194.37+100.706+191.64+97.5255+188.12C94.3455+184.59+91.9455+180.35+90.3255+175.4C88.7055+170.44+87.8955+165.09+87.8955+159.33C87.8955+153.43+88.7455+148.02+90.4355+143.1C92.1255+138.18+94.5755+133.99+97.7955+130.53C101.006+127.07+104.916+124.43+109.526+122.6C114.136+120.77+119.366+119.84+125.226+119.84L125.226+119.84ZM147.316+159.31C147.316+153.69+146.406+148.82+144.596+144.7C142.786+140.58+140.186+137.47+136.826+135.35C133.456+133.24+129.596+132.18+125.226+132.18C122.116+132.18+119.246+132.76+116.616+133.93C113.976+135.1+111.716+136.8+109.806+139.03C107.896+141.26+106.406+144.12+105.306+147.59C104.206+151.06+103.656+154.96+103.656+159.29C103.656+163.65+104.206+167.6+105.306+171.12C106.406+174.65+107.956+177.57+109.966+179.89C111.976+182.21+114.276+183.95+116.876+185.1C119.476+186.25+122.326+186.83+125.436+186.83C129.416+186.83+133.076+185.84+136.406+183.85C139.736+181.86+142.396+178.79+144.366+174.64C146.336+170.5+147.316+165.39+147.316+159.31L147.316+159.31Z" fill-rule="evenodd" fill="#3642ad" opacity="1"/>
<path d="M204.786+118.22C212.746+118.22+219.576+119.83+225.286+123.06C230.996+126.29+235.316+130.88+238.246+136.83C241.176+142.78+242.645+149.77+242.645+157.8C242.645+163.73+241.846+169.13+240.236+173.98C238.626+178.83+236.226+183.04+233.006+186.6C229.796+190.16+225.846+192.88+221.176+194.77C216.496+196.65+211.136+197.6+205.106+197.6C199.106+197.6+193.726+196.63+188.976+194.69C184.226+192.75+180.266+190.02+177.085+186.5C173.906+182.97+171.506+178.73+169.886+173.78C168.266+168.82+167.456+163.47+167.456+157.71C167.456+151.81+168.305+146.4+169.996+141.48C171.686+136.56+174.136+132.37+177.356+128.91C180.566+125.45+184.476+122.81+189.085+120.98C193.696+119.15+198.926+118.22+204.786+118.22L204.786+118.22ZM226.886+157.7C226.886+152.08+225.976+147.21+224.166+143.09C222.356+138.97+219.756+135.86+216.395+133.74C213.025+131.63+209.166+130.57+204.796+130.57C201.686+130.57+198.816+131.15+196.186+132.32C193.546+133.49+191.286+135.19+189.376+137.42C187.476+139.65+185.976+142.51+184.876+145.98C183.775+149.45+183.226+153.35+183.226+157.68C183.226+162.04+183.775+165.99+184.876+169.51C185.976+173.03+187.525+175.96+189.536+178.28C191.546+180.6+193.846+182.34+196.446+183.49C199.046+184.64+201.895+185.22+205.006+185.22C208.986+185.22+212.645+184.23+215.976+182.24C219.305+180.25+221.966+177.18+223.936+173.03C225.895+168.88+226.886+163.77+226.886+157.7L226.886+157.7Z" fill-rule="evenodd" fill="#3642ad" opacity="1"/>
<path d="M357.335+196.87L308.576+195.87L308.576+122.96L323.376+122.96L323.376+182.79L357.335+183.47L357.335+196.87L357.335+196.87Z" fill-rule="evenodd" fill="#3642ad" opacity="1"/>
<path d="M402.216+119.63L422.475+119.63C427.746+119.63+432.266+120.12+436.036+121.1C439.805+122.08+443.225+123.91+446.295+126.6C454.286+133.44+458.286+143.84+458.286+157.8C458.286+162.41+457.886+166.61+457.086+170.42C456.286+174.22+455.045+177.65+453.365+180.71C451.686+183.77+449.545+186.5+446.925+188.9C444.865+190.75+442.615+192.23+440.165+193.35C437.716+194.47+435.096+195.25+432.286+195.71C429.475+196.16+426.305+196.39+422.786+196.39L402.525+196.39C399.696+196.39+397.566+195.96+396.136+195.11C394.706+194.26+393.775+193.05+393.335+191.5C392.895+189.95+392.686+187.93+392.686+185.45L392.686+129.17C392.686+125.82+393.436+123.39+394.936+121.89C396.446+120.38+398.865+119.63+402.216+119.63L402.216+119.63ZM408.236+131.93L408.236+184.03L420.016+184.03C422.596+184.03+424.626+183.96+426.086+183.82C427.555+183.68+429.066+183.33+430.646+182.77C432.225+182.21+433.576+181.43+434.725+180.41C439.925+176.01+442.526+168.44+442.526+157.69C442.526+150.12+441.386+144.44+439.096+140.67C436.805+136.9+433.996+134.5+430.636+133.47C427.286+132.44+423.235+131.93+418.486+131.93L408.236+131.93L408.236+131.93Z" fill-rule="evenodd" fill="#3642ad" opacity="1"/>
<path stroke="#3642ad" fill-rule="evenodd" stroke-width="4" d="M65.3755+138.92L81.2555+138.92L78.4855+135.72C77.4255+134.5+76.2255+133.36+74.9155+132.34L71.3855+129.59C69.4955+128.12+67.3555+126.93+65.0255+126.05L59.6555+124.03C57.1555+123.09+54.5155+122.48+51.8055+122.23L49.2555+121.99C47.7755+121.85+46.2855+121.85+44.7955+121.98L40.7455+122.35C38.8455+122.52+36.9855+122.92+35.2155+123.54L30.3955+125.21C28.7355+125.79+27.1455+126.52+25.6755+127.41L22.8555+129.1C21.4755+129.93+20.1755+130.87+18.9855+131.9L16.2655+134.26C14.6755+135.64+13.2855+137.18+12.1055+138.84L11.4955+139.71C9.76551+142.16+8.47511+144.82+7.67511+147.61L6.27521+152.46C6.01511+153.36+5.81511+154.27+5.67511+155.19L5.36511+157.24C5.07511+159.14+5.02521+161.05+5.22511+162.96L5.42511+164.94C5.73511+167.9+6.58511+170.8+7.96521+173.52L9.30551+176.17C9.43551+176.42+9.57551+176.66+9.72551+176.9L12.9055+181.67C13.5555+182.64+14.3055+183.56+15.1655+184.4L18.3155+187.52C20.6855+189.87+23.4655+191.88+26.5555+193.49L28.9655+194.74C30.9055+195.75+33.0155+196.5+35.2155+196.96L37.8055+197.5C39.0255+197.76+40.2755+197.89+41.5355+197.89L49.3855+197.89C50.9555+197.89+52.5155+197.72+54.0255+197.38L59.1455+196.24C61.6355+195.68+64.0155+194.8+66.1955+193.62L69.8355+191.65C70.5455+191.27+71.2255+190.84+71.8555+190.36L73.5255+189.12C76.4255+186.97+78.9755+184.48+81.0955+181.72L83.9055+178.07L68.9055+178.94L64.3155+182.35C62.7255+183.53+60.9055+184.46+58.9355+185.1L55.5555+186.2C54.4555+186.56+53.3155+186.8+52.1555+186.93L48.6055+187.32C47.5655+187.44+46.5155+187.45+45.4755+187.36L42.6755+187.12C40.6655+186.95+38.7055+186.49+36.8755+185.77L32.9655+184.23C30.7755+183.37+28.8255+182.11+27.2355+180.54L24.7455+178.08C23.7055+177.05+22.8155+175.92+22.0855+174.7L20.1755+171.5C18.6655+168.97+17.7355+166.2+17.4255+163.37L17.2555+161.81C16.8855+158.34+17.3055+154.85+18.5155+151.52L18.6355+151.2C19.4655+148.91+20.7355+146.75+22.3955+144.83L24.8355+142C26.5855+139.96+28.7555+138.22+31.2355+136.85L33.7455+135.46C35.6755+134.39+37.8255+133.68+40.0855+133.37L43.4155+132.9C45.8055+132.56+48.2455+132.6+50.6255+133L53.5855+133.5C55.1155+133.76+56.6255+134.12+58.0955+134.58L59.1455+134.91C60.3955+135.31+61.5555+135.91+62.5355+136.69L65.3755+138.92L65.3755+138.92Z" fill="#3642ad" stroke-linecap="butt" opacity="1" stroke-linejoin="miter"/>
<g opacity="1">
<path d="M306.727+49.7591L288.114+79.6281C286.583+81.3481+284.348+82.2591+282.059+82.0981C279.77+81.9361+277.683+80.7201+276.406+78.8021L242.601+28.0431C241.416+26.2651+241.027+24.0681+241.531+21.9881C242.033+19.9081+243.383+18.1371+245.248+17.1061L245.248+17.1061C248.995+15.0311+253.697+16.1881+256.068+19.7681L280.343+55.3461C280.614+55.7591+282.74+59.1621+283.059+58.7861L306.161+22.5101C306.333+22.1991+307.115+21.1151+307.46+21.1951C310.426+21.9841+309.591+28.5741+309.639+29.1941C309.639+29.1941+309.868+40.2741+310.339+46.1211C310.809+51.9671+311.523+52.5801+311.523+52.5801C311.567+53.0041+307.014+49.4381+306.727+49.7591L306.727+49.7591Z" fill-rule="evenodd" fill="#3642ad" opacity="1"/>
<path d="M356.669+23.2821L366.709+23.2821C367.484+23.2841+368.191+22.8391+368.527+22.1371C368.863+21.4351+368.77+20.6021+368.286+19.9931L368.286+19.9931C367.279+18.7261+366.153+17.5611+364.921+16.5161L361.578+13.6871C359.781+12.1671+357.759+10.9381+355.584+10.0481L350.525+7.96412C348.16+6.99812+345.669+6.37712+343.128+6.12112L340.929+5.89612C339.399+5.74112+337.857+5.74112+336.329+5.89612L332.71+6.26412C330.928+6.44112+329.175+6.85112+327.498+7.48512L322.949+9.20712C321.387+9.79712+319.895+10.5561+318.499+11.4711L315.848+13.1791C314.551+14.0271+313.331+14.9911+312.205+16.0591L309.639+18.4891C308.149+19.8961+306.833+21.4801+305.719+23.2051L305.141+24.0971C303.52+26.5991+302.307+29.3441+301.542+32.2281L300.255+37.1001C299.986+38.1021+299.782+39.1211+299.639+40.1491L299.393+41.9011C299.1+44.0071+299.053+46.1411+299.249+48.2581L299.423+50.0581C299.714+53.1231+300.528+56.1161+301.826+58.9041L303.037+61.5261C303.187+61.8531+303.356+62.1711+303.542+62.4771L306.475+67.2931C307.089+68.3001+307.804+69.2431+308.605+70.1071L311.574+73.3221C313.835+75.7581+316.455+77.8291+319.342+79.4621L321.615+80.7531C323.456+81.7981+325.439+82.5681+327.502+83.0391L329.701+83.5481C331.006+83.8411+332.341+83.9861+333.678+83.9791L340.614+83.9791C342.242+83.9811+343.865+83.7881+345.449+83.4041L350.038+82.2981C352.371+81.7281+354.607+80.8181+356.68+79.5991L359.979+77.6441C360.735+77.1981+361.456+76.6961+362.137+76.1431L363.605+74.9631C366.322+72.7641+368.723+70.1961+370.742+67.3341L370.947+67.0391C371.394+66.4021+371.438+65.5631+371.059+64.8821C370.683+64.2011+369.95+63.7981+369.176+63.8451L359.884+64.4351C359.468+64.4611+359.071+64.6171+358.748+64.8821L354.917+67.9861C353.399+69.2121+351.684+70.1681+349.847+70.8151L346.871+71.8731C345.697+72.2891+344.481+72.5741+343.246+72.7251L340.313+73.0941C339.193+73.2291+338.064+73.2461+336.941+73.1421L334.518+72.9201C332.634+72.7461+330.788+72.2771+329.049+71.5301L325.383+69.9411C323.341+69.0641+321.503+67.7711+319.982+66.1431L317.637+63.6131C316.661+62.5631+315.818+61.3951+315.13+60.1361L313.334+56.8431C311.917+54.2561+311.036+51.4071+310.742+48.4681L310.585+46.8641C310.232+43.2911+310.637+39.6821+311.772+36.2771L311.882+35.9451C312.676+33.5681+313.876+31.3491+315.426+29.3851L317.729+26.4681C319.406+24.3531+321.447+22.5581+323.755+21.1701L326.127+19.7391C327.96+18.6371+329.99+17.9051+332.102+17.5821L334.906+17.1541C337.383+16.7741+339.904+16.8101+342.37+17.2611L344.679+17.6851C346.223+17.9691+347.746+18.3701+349.232+18.8831L350.067+19.1711C351.24+19.5761+352.324+20.2021+353.264+21.0151L355.364+22.8221C355.732+23.1241+356.193+23.2871+356.669+23.2821L356.669+23.2821Z" fill-rule="evenodd" fill="url(#LinearGradient)" opacity="1"/>
<path d="M274.79+29.1531C274.79+24.7171+278.364+21.1221+282.773+21.1221C287.183+21.1221+290.757+24.7171+290.757+29.1531C290.757+33.5891+287.183+37.1841+282.773+37.1841C278.364+37.1841+274.79+33.5891+274.79+29.1531L274.79+29.1531Z" fill-rule="evenodd" fill="#3642ad" opacity="1"/>
<path d="M331.032+49.4091C331.032+44.9731+334.606+41.3771+339.015+41.3771C343.425+41.3771+346.999+44.9731+346.999+49.4091C346.999+53.8441+343.425+57.4401+339.015+57.4401C334.606+57.4401+331.032+53.8441+331.032+49.4091L331.032+49.4091Z" fill-rule="evenodd" fill="url(#LinearGradient_2)" opacity="1"/>
</g>
</g>
</g>
</svg>
