<svg width="45" height="46" viewBox="0 0 45 46" fill="none" xmlns="http://www.w3.org/2000/svg">
<path fill-rule="evenodd" clip-rule="evenodd" d="M31.1534 0.142402C28.582 0.551371 26.2661 1.7852 24.4635 3.70668C23.1929 5.06099 22.3378 6.50936 21.7533 8.29761C21.2105 9.95819 21.1851 10.3149 21.1847 16.2842L21.1844 21.6523L15.9385 21.6527C10.0904 21.6532 9.7596 21.678 8.10691 22.2438C3.58054 23.7932 0.458651 27.8844 0.058824 32.7909L0 33.5117H1.32424H2.6484L2.69976 33.085C2.82004 32.0846 2.93558 31.3963 2.99291 31.3388C3.02663 31.305 5.6421 33.8984 8.80499 37.1019C14.0252 42.3892 14.5354 42.9314 14.3362 42.9801C13.6367 43.1511 13.2886 43.2108 12.9753 43.2139C12.195 43.2215 12.2291 43.1553 12.2291 44.6629V46H12.5471C13.8425 46 16.2529 45.329 17.5382 44.6107C20.2504 43.0948 22.2909 40.6302 23.2361 37.7284C23.7674 36.0971 23.76 36.1999 23.7947 30.0351L23.8267 24.3574L29.4195 24.3271L35.0124 24.2967L36.0221 24.0183C41.0584 22.6293 44.4996 18.4653 44.9379 13.2295L45 12.4883H43.682C42.196 12.4883 42.2642 12.4518 42.253 13.252C42.2463 13.7273 42.0553 14.6527 41.963 14.6565C41.9229 14.6581 39.3195 12.059 36.1779 8.8807L30.4657 3.10195L30.8514 2.98713C31.0635 2.92396 31.4544 2.85056 31.72 2.82397C31.9856 2.79746 32.3312 2.75578 32.4882 2.73143L32.7736 2.68714V1.34361V0L32.3565 0.00871484C32.1271 0.0134766 31.5858 0.0736719 31.1534 0.142402ZM34.3208 10.8374C37.864 14.426 40.7631 17.4008 40.7631 17.4477C40.7631 17.599 40.0101 18.5372 39.4549 19.0774L38.9158 19.6021L38.1494 18.8746C37.7278 18.4744 34.7572 15.4842 31.5482 12.2296L25.7135 6.31224L26.2804 5.70373C26.7668 5.18156 27.7445 4.31277 27.8458 4.31259C27.8638 4.3125 30.7775 7.24868 34.3208 10.8374ZM32.3561 16.8728C36.4075 20.975 36.457 21.0295 36.2192 21.1222C35.6782 21.3331 34.5257 21.5686 33.7755 21.6213L32.9777 21.6775L28.4199 17.0642L23.8622 12.4509L23.8347 11.9979C23.7976 11.3855 23.9535 10.2493 24.184 9.45084L24.3737 8.79427L26.3128 10.7558C27.3794 11.8347 30.0988 14.5874 32.3561 16.8728ZM26.4961 18.957L29.1288 21.6523H26.4736H23.8183V18.957C23.8183 17.4746 23.8284 16.2617 23.8407 16.2617C23.8531 16.2617 25.048 17.4746 26.4961 18.957ZM16.5961 28.9505L21.1405 33.5533L21.129 34.4085C21.1181 35.2235 20.8515 36.6983 20.6579 37.0156C20.5695 37.1604 20.9095 37.4953 12.5609 29.0371C8.77768 25.2043 8.55898 24.9653 8.76047 24.887C9.57031 24.5719 10.582 24.377 11.5039 24.3586L12.0516 24.3477L16.5961 28.9505ZM21.1844 27.043C21.1844 28.5254 21.1743 29.7383 21.1619 29.7383C21.1495 29.7383 19.9546 28.5254 18.5066 27.043L15.8738 24.3477H18.529H21.1844V27.043ZM12.711 33.029L19.249 39.6438L19.0844 39.8796C18.8804 40.1717 17.9174 41.1145 17.4748 41.4553L17.1454 41.7091L10.6924 35.1734C7.14334 31.5788 4.23954 28.5985 4.23954 28.5505C4.23954 28.5026 4.3262 28.3357 4.43208 28.1799C4.67914 27.8163 6.00347 26.4141 6.09987 26.4141C6.14008 26.4141 9.11517 29.3908 12.711 33.029Z" fill="#F5FAFF"/>
</svg>
