<?xml version="1.0" encoding="UTF-8" standalone="no"?> <!-- Created with Vectornator for iOS (http://vectornator.io/) --><!DOCTYPE svg PUBLIC "-//W3C//DTD SVG 1.1//EN" "http://www.w3.org/Graphics/SVG/1.1/DTD/svg11.dtd">
<svg height="100%" style="fill-rule:nonzero;clip-rule:evenodd;stroke-linecap:round;stroke-linejoin:round;" xmlns:xlink="http://www.w3.org/1999/xlink" xmlns="http://www.w3.org/2000/svg" xml:space="preserve" width="100%" xmlns:vectornator="http://vectornator.io" version="1.1" viewBox="0 0 735 95">
<metadata>
<vectornator:setting key="DimensionsVisible" value="1"/>
<vectornator:setting key="PencilOnly" value="0"/>
<vectornator:setting key="SnapToPoints" value="0"/>
<vectornator:setting key="OutlineMode" value="0"/>
<vectornator:setting key="CMYKEnabledKey" value="0"/>
<vectornator:setting key="RulersVisible" value="1"/>
<vectornator:setting key="SnapToEdges" value="0"/>
<vectornator:setting key="GuidesVisible" value="1"/>
<vectornator:setting key="DisplayWhiteBackground" value="0"/>
<vectornator:setting key="doHistoryDisabled" value="0"/>
<vectornator:setting key="SnapToGuides" value="1"/>
<vectornator:setting key="TimeLapseWatermarkDisabled" value="0"/>
<vectornator:setting key="Units" value="Points"/>
<vectornator:setting key="DynamicGuides" value="0"/>
<vectornator:setting key="IsolateActiveLayer" value="0"/>
<vectornator:setting key="SnapToGrid" value="0"/>
</metadata>
<defs>
<linearGradient y1="108.06" id="LinearGradient" x1="157.74" y2="108.06" x2="354.67" gradientUnits="userSpaceOnUse" gradientTransform="matrix(0.366565 0 0 0.367811 598.07 4.2478)">
<stop stop-color="#3642ad" offset="0"/>
<stop stop-color="#0071bc" offset="0.47"/>
</linearGradient>
<linearGradient y1="120.36" id="LinearGradient_2" x1="244.75" y2="120.36" x2="288.31" gradientUnits="userSpaceOnUse" gradientTransform="matrix(0.366565 0 0 0.367811 598.07 4.2478)">
<stop stop-color="#3642ad" offset="0"/>
<stop stop-color="#0071bc" offset="0.51"/>
</linearGradient>
</defs>
<g id="layer0" vectornator:layerName="layer0">
<path d="M268.36+200.68L269.32+200.68L269.32+223.72L268.36+223.72L268.36+200.68Z" opacity="1" fill="none"/>
<g opacity="1">
<path d="M298.32+85.1299L249.56+84.1299L249.56+11.2198L264.36+11.2198L264.36+71.0499L298.32+71.7299L298.32+85.1299L298.32+85.1299Z" fill-rule="evenodd" fill="#3642ad" opacity="1"/>
<path d="M363.1+85.1299L363.1+11.4098L378.98+11.2098L378.741+85.1299L363.1+85.1299L363.1+85.1299Z" fill-rule="evenodd" fill="#3642ad" opacity="1"/>
<path d="M465.5+84.1199L465.5+11.2098L512.68+11.2098L512.68+24.0798L480.29+24.0798L480.29+41.1298L506.24+41.1298L506.24+53.7798L480.29+53.7798L480.29+71.2599L512.67+71.2599L512.67+84.1299L465.5+84.1299L465.5+84.1199L465.5+84.1199Z" fill-rule="evenodd" fill="#3642ad" opacity="1"/>
<path d="M547.25+59.6798L532.99+59.6798L532.99+84.1299L518.19+84.1299L518.19+11.2198L546.5+11.2198C563.661+11.2198+572.23+19.2298+572.23+35.2398C572.23+44.7498+568.661+51.7498+561.51+56.2598L579.79+85.1299L564.151+85.1299L547.25+59.6798L547.25+59.6798ZM532.99+47.0198L546.721+47.0198C550.221+47.0198+552.83+45.9498+554.55+43.7998C556.26+41.6598+557.12+38.8298+557.12+35.3298C557.12+31.8298+556.211+29.0398+554.38+26.9698C552.56+24.8998+549.93+23.8598+546.5+23.8598L532.99+23.8598L532.99+47.0198L532.99+47.0198Z" fill-rule="evenodd" fill="#3642ad" opacity="1"/>
<path d="M125.12+8.6398C133.08+8.6398+139.91+10.2498+145.62+13.4798C151.33+16.7098+155.65+21.2998+158.58+27.2498C161.51+33.1998+162.98+40.1898+162.98+48.2198C162.98+54.1498+162.18+59.5498+160.57+64.3999C158.961+69.2499+156.56+73.4599+153.34+77.0199C150.12+80.5799+146.18+83.2999+141.51+85.1899C136.83+87.0699+131.47+88.0199+125.44+88.0199C119.44+88.0199+114.06+87.0499+109.31+85.1099C104.56+83.1699+100.6+80.4399+97.4201+76.9199C94.2401+73.3899+91.8401+69.1499+90.2201+64.1999C88.6001+59.2398+87.7901+53.8898+87.7901+48.1298C87.7901+42.2298+88.6402+36.8198+90.3301+31.8998C92.0201+26.9798+94.4701+22.7898+97.6901+19.3298C100.9+15.8698+104.81+13.2298+109.42+11.3998C114.03+9.5698+119.26+8.6398+125.12+8.6398L125.12+8.6398ZM147.211+48.1098C147.211+42.4898+146.3+37.6198+144.491+33.4998C142.68+29.3798+140.08+26.2698+136.72+24.1498C133.35+22.0398+129.49+20.9798+125.12+20.9798C122.01+20.9798+119.14+21.5598+116.51+22.7298C113.87+23.8998+111.61+25.5998+109.7+27.8298C107.79+30.0598+106.3+32.9198+105.2+36.3898C104.1+39.8598+103.55+43.7598+103.55+48.0898C103.55+52.4498+104.1+56.3998+105.2+59.9198C106.3+63.4498+107.85+66.3699+109.86+68.6899C111.87+71.0099+114.17+72.7499+116.77+73.8999C119.37+75.0499+122.22+75.6299+125.33+75.6299C129.31+75.6299+132.97+74.6399+136.3+72.6499C139.63+70.6599+142.29+67.5899+144.26+63.4398C146.23+59.2998+147.211+54.1898+147.211+48.1098L147.211+48.1098Z" fill-rule="evenodd" fill="#3642ad" opacity="1"/>
<path d="M204.68+7.0198C212.64+7.0198+219.47+8.6298+225.18+11.8598C230.89+15.0898+235.211+19.6798+238.14+25.6298C241.07+31.5798+242.54+38.5698+242.54+46.5998C242.54+52.5298+241.741+57.9298+240.13+62.7798C238.521+67.6299+236.12+71.8399+232.9+75.3999C229.69+78.9599+225.741+81.6799+221.07+83.5699C216.39+85.4499+211.03+86.3999+205+86.3999C199+86.3999+193.62+85.4299+188.87+83.4899C184.12+81.5499+180.16+78.8199+176.98+75.2999C173.8+71.7699+171.4+67.5299+169.78+62.5798C168.16+57.6198+167.35+52.2698+167.35+46.5098C167.35+40.6098+168.2+35.1998+169.89+30.2798C171.58+25.3598+174.03+21.1698+177.25+17.7098C180.461+14.2498+184.37+11.6098+188.98+9.7798C193.59+7.9498+198.82+7.0198+204.68+7.0198L204.68+7.0198ZM226.78+46.4998C226.78+40.8798+225.87+36.0098+224.06+31.8898C222.25+27.7698+219.65+24.6598+216.29+22.5398C212.92+20.4298+209.06+19.3698+204.69+19.3698C201.58+19.3698+198.711+19.9498+196.08+21.1198C193.44+22.2898+191.18+23.9898+189.271+26.2198C187.37+28.4498+185.87+31.3098+184.771+34.7798C183.67+38.2498+183.12+42.1498+183.12+46.4798C183.12+50.8398+183.67+54.7898+184.771+58.3098C185.87+61.8298+187.42+64.7599+189.43+67.0799C191.44+69.3999+193.741+71.1399+196.34+72.2899C198.94+73.4399+201.79+74.0199+204.9+74.0199C208.88+74.0199+212.54+73.0299+215.87+71.0399C219.2+69.0499+221.86+65.9799+223.83+61.8298C225.79+57.6798+226.78+52.5698+226.78+46.4998L226.78+46.4998Z" fill-rule="evenodd" fill="#3642ad" opacity="1"/>
<path d="M357.23+85.6699L308.47+84.6699L308.47+11.7598L323.271+11.7598L323.271+71.5899L357.23+72.2699L357.23+85.6699L357.23+85.6699Z" fill-rule="evenodd" fill="#3642ad" opacity="1"/>
<path d="M402.11+8.4298L422.37+8.4298C427.64+8.4298+432.161+8.9198+435.93+9.8998C439.7+10.8798+443.12+12.7098+446.19+15.3998C454.18+22.2398+458.18+32.6398+458.18+46.5998C458.18+51.2098+457.781+55.4098+456.98+59.2198C456.18+63.0198+454.94+66.4499+453.26+69.5099C451.58+72.5699+449.44+75.2999+446.82+77.6999C444.76+79.5499+442.51+81.0299+440.06+82.1499C437.61+83.2699+434.99+84.0499+432.18+84.5099C429.37+84.9599+426.2+85.1899+422.68+85.1899L402.42+85.1899C399.591+85.1899+397.461+84.7599+396.031+83.9099C394.601+83.0599+393.67+81.8499+393.23+80.2999C392.79+78.7499+392.58+76.7299+392.58+74.2499L392.58+17.9698C392.58+14.6198+393.33+12.1898+394.83+10.6898C396.341+9.1798+398.76+8.4298+402.11+8.4298L402.11+8.4298ZM408.13+20.7298L408.13+72.8299L419.911+72.8299C422.49+72.8299+424.521+72.7599+425.98+72.6199C427.45+72.4799+428.961+72.1299+430.54+71.5699C432.12+71.0099+433.471+70.2299+434.62+69.2099C439.82+64.8099+442.42+57.2398+442.42+46.4898C442.42+38.9198+441.281+33.2398+438.99+29.4698C436.7+25.6998+433.89+23.2998+430.531+22.2698C427.18+21.2398+423.13+20.7298+418.38+20.7298L408.13+20.7298L408.13+20.7298Z" fill-rule="evenodd" fill="#3642ad" opacity="1"/>
<path stroke="#3642ad" fill-rule="evenodd" stroke-width="4" d="M65.2701+27.7198L81.1501+27.7198L78.3801+24.5198C77.3202+23.2998+76.1201+22.1598+74.8101+21.1398L71.2801+18.3898C69.3902+16.9198+67.2501+15.7298+64.9201+14.8498L59.5506+12.8298C57.0506+11.8898+54.4107+11.2798+51.7006+11.0298L49.1506+10.7898C47.6706+10.6498+46.1806+10.6498+44.6906+10.7798L40.6406+11.1498C38.7406+11.3198+36.8806+11.7198+35.1106+12.3398L30.2906+14.0098C28.6306+14.5898+27.0406+15.3198+25.5706+16.2098L22.7506+17.8998C21.3706+18.7298+20.0706+19.6698+18.8806+20.6998L16.1606+23.0598C14.5706+24.4398+13.1806+25.9798+12.0006+27.6398L11.3906+28.5098C9.66065+30.9598+8.37065+33.6198+7.57065+36.4098L6.17065+41.2598C5.91065+42.1598+5.71065+43.0698+5.57065+43.9898L5.26065+46.0398C4.97065+47.9398+4.92065+49.8498+5.12065+51.7598L5.32065+53.7398C5.63065+56.6998+6.48065+59.5998+7.86065+62.3198L9.20065+64.9699C9.33065+65.2199+9.47065+65.4599+9.62065+65.6999L12.8006+70.4699C13.4506+71.4399+14.2006+72.3599+15.0606+73.1999L18.2106+76.3199C20.5806+78.6699+23.3606+80.6799+26.4506+82.2899L28.8606+83.5399C30.8006+84.5499+32.9107+85.2999+35.1106+85.7599L37.7006+86.2999C38.9206+86.5599+40.1706+86.6899+41.4306+86.6899L49.2806+86.6899C50.8506+86.6899+52.4107+86.5199+53.9206+86.1799L59.0406+85.0399C61.5306+84.4799+63.9101+83.5999+66.0901+82.4199L69.7301+80.4499C70.4401+80.0699+71.1201+79.6399+71.7501+79.1599L73.4201+77.9199C76.3202+75.7699+78.8701+73.2799+80.9901+70.5199L83.8001+66.8699L68.8001+67.7399L64.2102+71.1499C62.6206+72.3299+60.8006+73.2599+58.8306+73.8999L55.4506+74.9999C54.3506+75.3599+53.2106+75.5999+52.0506+75.7299L48.5006+76.1199C47.4606+76.2399+46.4107+76.2499+45.3706+76.1599L42.5706+75.9199C40.5606+75.7499+38.6006+75.2899+36.7706+74.5699L32.8606+73.0299C30.6706+72.1699+28.7206+70.9099+27.1306+69.3399L24.6406+66.8799C23.6006+65.8499+22.7106+64.7199+21.9806+63.4998L20.0706+60.2998C18.5606+57.7698+17.6306+54.9998+17.3206+52.1698L17.1506+50.6098C16.7806+47.1398+17.2006+43.6498+18.4106+40.3198L18.5306+39.9998C19.3606+37.7098+20.6306+35.5498+22.2906+33.6298L24.7306+30.7998C26.4806+28.7598+28.6506+27.0198+31.1306+25.6498L33.6406+24.2598C35.5706+23.1898+37.7206+22.4798+39.9807+22.1698L43.3106+21.6998C45.7006+21.3598+48.1406+21.3998+50.5206+21.7998L53.4807+22.2998C55.0106+22.5598+56.5206+22.9198+57.9906+23.3798L59.0406+23.7098C60.2906+24.1098+61.4506+24.7098+62.4306+25.4898L65.2701+27.7198L65.2701+27.7198Z" fill="#3642ad" stroke-linecap="butt" opacity="1" stroke-linejoin="miter"/>
<g opacity="1">
<path d="M663.483+48.867L644.869+78.6599C643.338+80.3749+641.103+81.2839+638.814+81.1229C636.525+80.9619+634.438+79.7489+633.161+77.8359L599.356+27.2066C598.171+25.4333+597.782+23.2419+598.285+21.1672C598.789+19.0925+600.138+17.3254+602.003+16.2973L602.003+16.2973C605.75+14.2278+610.452+15.3818+612.824+18.9529L637.098+54.4393C637.369+54.8513+639.495+58.2461+639.814+57.871L662.916+21.6875C663.088+21.3773+663.87+20.2965+664.215+20.3756C667.18+21.1627+666.346+27.7362+666.394+28.3541C666.394+28.3541+666.623+39.4063+667.094+45.2381C667.565+51.0698+668.278+51.6807+668.278+51.6807C668.322+52.1037+663.769+48.547+663.483+48.867L663.483+48.867L663.483+48.867Z" fill-rule="evenodd" fill="#3642ad" opacity="1"/>
<path d="M713.424+22.4581L723.464+22.4581C724.239+22.46+724.945+22.0158+725.282+21.3157C725.618+20.6157+725.524+19.784+725.04+19.1773L725.04+19.1773C724.035+17.9131+722.908+16.7513+721.675+15.7088L718.332+12.8877C716.536+11.3707+714.513+10.1457+712.339+9.2574L707.28+7.1793C704.914+6.2153+702.424+5.596+699.883+5.3402L697.684+5.1158C696.154+4.9614+694.613+4.9614+693.083+5.1158L689.465+5.4837C687.682+5.6597+685.93+6.069+684.253+6.7011L679.704+8.4188C678.143+9.0071+676.651+9.7644+675.253+10.6771L672.603+12.3801C671.305+13.2262+670.086+14.1876+668.96+15.2527L666.394+17.6766C664.903+19.0807+663.588+20.6602+662.475+22.3809L661.896+23.271C660.276+25.7664+659.061+28.5038+658.296+31.3812L657.009+36.24C656.742+37.2403+656.536+38.2561+656.394+39.2818L656.148+41.0289C655.855+43.1298+655.807+45.258+656.005+47.37L656.177+49.1649C656.47+52.2225+657.283+55.2073+658.582+57.9887L659.792+60.6038C659.941+60.9301+660.11+61.2467+660.298+61.5528L663.23+66.3559C663.845+67.3609+664.558+68.3009+665.36+69.1629L668.329+72.3699C670.59+74.7989+673.209+76.8649+676.097+78.4939L678.369+79.7819C680.211+80.8239+682.194+81.5919+684.256+82.0619L686.456+82.5699C687.761+82.8619+689.095+83.0069+690.433+82.9999L697.368+82.9999C698.997+83.0019+700.62+82.8089+702.203+82.4259L706.793+81.3229C709.126+80.7539+711.363+79.8469+713.435+78.6299L716.734+76.6809C717.489+76.2359+718.211+75.7359+718.893+75.1839L720.359+74.0069C723.077+71.8129+725.479+69.2519+727.496+66.3969L727.702+66.1029C728.148+65.4669+728.192+64.6309+727.815+63.9509C727.437+63.2719+726.705+62.8699+725.931+62.9173L716.639+63.5058C716.223+63.5309+715.825+63.6869+715.502+63.9509L711.672+67.0479C710.154+68.2699+708.439+69.2239+706.602+69.8689L703.626+70.9249C702.451+71.3389+701.236+71.6239+700+71.7739L697.068+72.1419C695.949+72.2769+694.818+72.2939+693.695+72.1899L691.272+71.9689C689.389+71.7959+687.543+71.3279+685.803+70.5829L682.138+68.9969C680.096+68.1229+678.257+66.8329+676.738+65.2089L674.392+62.6856C673.416+61.6385+672.573+60.4736+671.885+59.2172L670.089+55.9326C668.672+53.3521+667.791+50.5107+667.497+47.5796L667.339+45.9796C666.988+42.4152+667.393+38.8162+668.527+35.4198L668.637+35.0888C669.431+32.7178+670.631+30.5036+672.182+28.5454L674.484+25.636C676.16+23.5259+678.202+21.7356+680.51+20.3506L682.882+18.9235C684.716+17.8248+686.745+17.0941+688.857+16.7718L691.661+16.3451C694.137+15.9666+696.659+16.0027+699.124+16.4518L701.434+16.8748C702.979+17.1583+704.501+17.5579+705.986+18.0702L706.822+18.357C707.994+18.761+709.079+19.3852+710.018+20.1961L712.119+21.9984C712.487+22.3004+712.948+22.4631+713.424+22.4581L713.424+22.4581L713.424+22.4581Z" fill-rule="evenodd" fill="url(#LinearGradient)" opacity="1"/>
<path d="M631.544+28.3137C631.544+23.8894+635.119+20.3028+639.528+20.3028C643.937+20.3028+647.512+23.8894+647.512+28.3137C647.512+32.738+643.937+36.3246+639.528+36.3246C635.119+36.3246+631.544+32.738+631.544+28.3137L631.544+28.3137L631.544+28.3137Z" fill-rule="evenodd" fill="#3642ad" opacity="1"/>
<path d="M687.786+48.5175C687.786+44.0931+691.361+40.5066+695.77+40.5066C700.179+40.5066+703.754+44.0931+703.754+48.5175C703.754+52.9419+700.179+56.5285+695.77+56.5285C691.361+56.5285+687.786+52.9419+687.786+48.5175L687.786+48.5175L687.786+48.5175Z" fill-rule="evenodd" fill="url(#LinearGradient_2)" opacity="1"/>
</g>
</g>
</g>
</svg>
