<?xml version='1.0' encoding='utf-8'?>
<!-- Generator: imaengine 6.0   -->
<svg xmlns:xlink="http://www.w3.org/1999/xlink" xmlns="http://www.w3.org/2000/svg" viewBox="0,0,356,216" style="enable-background:new 0 0 356 216;" version="1.1">
<defs>
<linearGradient y1="108.06" id="LinearGradient" x1="157.74" y2="108.06" x2="354.67" gradientUnits="userSpaceOnUse" gradientTransform="matrix(1 0 0 1 0 0)">
<stop stop-color="#3642AD" offset="0"/>
<stop stop-color="#0071BC" offset="0.47"/>
</linearGradient>
<linearGradient y1="120.36" id="LinearGradient_2" x1="244.75" y2="120.36" x2="288.31" gradientUnits="userSpaceOnUse" gradientTransform="matrix(1 0 0 1 0 0)">
<stop stop-color="#3642AD" offset="0"/>
<stop stop-color="#0071BC" offset="0.51"/>
</linearGradient>
</defs>
<g id="layer0">
<g>
<path d="M178.45,121.31L127.67,202.31C123.494,206.974 117.397,209.446 111.152,209.008C104.907,208.57 99.2145,205.271 95.73,200.07L3.50998,62.42C0.27585,57.5989 -0.784028,51.6409 0.589055,46.0002C1.96214,40.3595 5.64185,35.5552 10.73,32.76L10.73,32.76C20.9516,27.1336 33.7791,30.2709 40.25,39.98L106.47,136.46C107.21,137.58 113.01,146.81 113.88,145.79L176.902,47.4148C177.371,46.5715 179.505,43.6329 180.446,43.8481C188.536,45.9881 186.26,63.86 186.39,65.54C186.39,65.54 187.016,95.5885 188.301,111.444C189.586,127.299 191.53,128.96 191.53,128.96C191.65,130.11 179.23,120.44 178.45,121.31L178.45,121.31Z" fill-rule="evenodd" fill="#3642AD"/>
<path d="M314.69,49.51L342.08,49.51C344.193,49.5151 346.121,48.3073 347.039,46.404C347.956,44.5007 347.7,42.2397 346.38,40.59L346.38,40.59C343.637,37.153 340.562,33.9944 337.2,31.16L328.08,23.49C323.179,19.3656 317.662,16.0351 311.73,13.62L297.93,7.96999C291.476,5.34908 284.681,3.66535 277.75,2.96999L271.75,2.35999C267.577,1.93999 263.373,1.94 259.2,2.35999L249.33,3.35999C244.466,3.83873 239.685,4.9515 235.11,6.66999L222.7,11.34C218.442,12.9395 214.372,14.9983 210.56,17.48L203.33,22.11C199.789,24.4104 196.463,27.0243 193.39,29.92L186.39,36.51C182.325,40.3275 178.736,44.6219 175.7,49.3L174.12,51.72C169.701,58.5045 166.387,65.947 164.3,73.77L160.79,86.98C160.06,89.6995 159.499,92.4614 159.11,95.25L158.44,100C157.64,105.712 157.51,111.498 158.05,117.24L158.52,122.12C159.317,130.433 161.536,138.548 165.08,146.11L168.38,153.22C168.788,154.107 169.249,154.968 169.76,155.8L177.76,168.86C179.437,171.591 181.383,174.147 183.57,176.49L191.67,185.21C197.837,191.814 204.984,197.43 212.86,201.86L219.06,205.36C224.085,208.194 229.494,210.283 235.12,211.56L241.12,212.94C244.681,213.736 248.321,214.128 251.97,214.11L270.89,214.11C275.333,214.115 279.761,213.591 284.08,212.55L296.6,209.55C302.964,208.004 309.068,205.538 314.72,202.23L323.72,196.93C325.781,195.72 327.749,194.36 329.61,192.86L333.61,189.66C341.023,183.695 347.576,176.732 353.08,168.97L353.64,168.17C354.859,166.442 354.979,164.168 353.949,162.321C352.919,160.474 350.921,159.381 348.81,159.51L323.46,161.11C322.325,161.179 321.241,161.602 320.36,162.32L309.91,170.74C305.769,174.063 301.092,176.657 296.08,178.41L287.96,181.28C284.757,182.407 281.441,183.181 278.07,183.59L270.07,184.59C267.017,184.958 263.933,185.002 260.87,184.72L254.26,184.12C249.121,183.648 244.087,182.376 239.34,180.35L229.34,176.04C223.77,173.662 218.755,170.155 214.61,165.74L208.21,158.88C205.547,156.033 203.249,152.866 201.37,149.45L196.47,140.52C192.607,133.504 190.202,125.779 189.4,117.81L188.97,113.46C188.012,103.769 189.116,93.9841 192.21,84.75L192.51,83.85C194.677,77.4038 197.949,71.384 202.18,66.06L208.46,58.15C213.034,52.4131 218.603,47.5456 224.9,43.78L231.37,39.9C236.373,36.913 241.909,34.9262 247.67,34.05L255.32,32.89C262.076,31.861 268.956,31.959 275.68,33.18L281.98,34.33C286.196,35.1008 290.347,36.1872 294.4,37.58L296.68,38.36C299.878,39.4584 302.837,41.1553 305.4,43.36L311.13,48.26C312.133,49.0811 313.393,49.5235 314.69,49.51L314.69,49.51Z" fill-rule="evenodd" fill="url(#LinearGradient)"/>
<path d="M91.32,65.43C91.32,53.4012 101.071,43.65 113.1,43.65C125.129,43.65 134.88,53.4012 134.88,65.43C134.88,77.4588 125.129,87.21 113.1,87.21C101.071,87.21 91.32,77.4588 91.32,65.43L91.32,65.43Z" fill-rule="evenodd" fill="#3642AD"/>
<path d="M244.75,120.36C244.75,108.331 254.501,98.58 266.53,98.58C278.559,98.58 288.31,108.331 288.31,120.36C288.31,132.389 278.559,142.14 266.53,142.14C254.501,142.14 244.75,132.389 244.75,120.36L244.75,120.36Z" fill-rule="evenodd" fill="url(#LinearGradient_2)"/>
</g>
</g>
</svg>
