<svg width="45" height="45" viewBox="0 0 45 45" fill="none" xmlns="http://www.w3.org/2000/svg">
<path d="M22.5 0C10.071 0 0 10.0705 0 22.5C0 34.9295 10.071 45 22.5 45C34.929 45 45 34.9295 45 22.5C45 10.0705 34.929 0 22.5 0ZM34.11 38.25C30.852 40.6543 26.847 42.0968 22.5 42.0968C18.153 42.0968 14.148 40.6543 10.89 38.25V37.0161C10.89 33.8135 13.491 31.2097 16.695 31.2097C17.703 31.2097 19.188 32.2439 22.5 32.2439C25.821 32.2439 27.288 31.2097 28.305 31.2097C31.509 31.2097 34.11 33.8135 34.11 37.0161V38.25ZM36.891 35.755C36.27 31.5454 32.688 28.3064 28.305 28.3064C26.451 28.3064 25.551 29.3407 22.5 29.3407C19.449 29.3407 18.558 28.3064 16.695 28.3064C12.312 28.3064 8.73001 31.5454 8.10901 35.755C4.88701 32.2621 2.90698 27.6169 2.90698 22.5C2.90698 11.6946 11.691 2.90322 22.5 2.90322C33.309 2.90322 42.093 11.6946 42.093 22.5C42.093 27.6169 40.113 32.2621 36.891 35.755ZM22.5 10.1613C18.09 10.1613 14.517 13.7359 14.517 18.1452C14.517 22.5544 18.09 26.1291 22.5 26.1291C26.91 26.1291 30.483 22.5544 30.483 18.1452C30.483 13.7359 26.91 10.1613 22.5 10.1613ZM22.5 23.2258C19.701 23.2258 17.415 20.9486 17.415 18.1452C17.415 15.3418 19.701 13.0645 22.5 13.0645C25.299 13.0645 27.585 15.3418 27.585 18.1452C27.585 20.9486 25.299 23.2258 22.5 23.2258Z" fill="#3A3B40"/>
</svg>
